# xmcd
#
# Track frame offsets:
#	150
#	14949
#	26763
#	39916
#	49805
#	63978
#	75001
#	92996
#	104557
#	121011
#	134230
#	143278
#	157181
#	168176
#	179609
#	193603
#	203515
#	213925
#	220397
#	225011
#	237806
#	252087
#	262262
#	273282
#	285008
#	297150
#
# Disc length: 4199 seconds
#
# Revision: 0
# Processed by: cddbd v1.5.2PL0 Copyright (c) Steve Scherf et al.
# Submitted via: EasyCDDAExtractor 10.0.5.1
#
DISCID=6e10651a
DTITLE=Various Artist - Beach Club 2006 Chivas Party Vol. 3
DYEAR=2006
DGENRE=Pop
TTITLE0=Bob Sinclair and Cutee B Feat. Dollarman - Rock this Party
TTITLE1=Justin Timberlake - Sexy Back (Sex in my house Mix)
TTITLE2=Black eyed Peas - My Humps (Outlaw Remix)
TTITLE3=Gwen Stefani - Hollaback Girl
TTITLE4=DJ RMX - Return Of Tree
TTITLE5=Dr. Dre Feat Snoop Dogg - The Next episode
TTITLE6=Teriyaki Boyz - Tokyo Drift
TTITLE7=Black Eyed Peas - Dont Phunk With My Heart
TTITLE8=Usher - Yeah
TTITLE9=Petey Paldo - Freek A Leek
TTITLE10=Destiny's Child - Los My Breath
TTITLE11=Linkin Park and JayZ - Numb - Encore
TTITLE12=Eminem - Just Love It (Bilim Term Mix)
TTITLE13=Snoop Dogg and Pharell - Drop It Like It's Hot
TTITLE14=Jemelia - Superstar
TTITLE15=Eminem - Buisness
TTITLE16=Black Eyed Peas - Where Is The Love
TTITLE17=Joan Jett - I Hate Myself To Loving You
TTITLE18=Quees - WeWill Rock You
TTITLE19=Guns and Roses - Sweet Child O Mine
TTITLE20=Deep Water - Smoke On The Water
TTITLE21=J Lo - Jenny From The Block
TTITLE22=Eve - Got What You Need
TTITLE23=Ashlee Simpson - Love
TTITLE24=Shakira and Wyclef Jean - Hip's Dont Lie
TTITLE25=DJ Nick - Hey Ho
EXTD=
EXTT0=
EXTT1=
EXTT2=
EXTT3=
EXTT4=
EXTT5=
EXTT6=
EXTT7=
EXTT8=
EXTT9=
EXTT10=
EXTT11=
EXTT12=
EXTT13=
EXTT14=
EXTT15=
EXTT16=
EXTT17=
EXTT18=
EXTT19=
EXTT20=
EXTT21=
EXTT22=
EXTT23=
EXTT24=
EXTT25=
PLAYORDER=
